<?xml version="1.0" encoding="utf-8"?>
<!-- Generator: Adobe Illustrator 25.3.1, SVG Export Plug-In . SVG Version: 6.00 Build 0)  -->
<svg version="1.1" id="Layer_1" xmlns="http://www.w3.org/2000/svg" xmlns:xlink="http://www.w3.org/1999/xlink" x="0px" y="0px"
	 viewBox="0 0 120.4 71.5" style="enable-background:new 0 0 120.4 71.5;" xml:space="preserve">
<style type="text/css">
	.st0{fill:#CE942F;}
	.st1{clip-path:url(#SVGID_2_);}
</style>
<path class="st0" d="M60.2,6.6c1.1,1.5,1.7,3.2,2,5c0.1,1.1-0.4,2.2-1.4,2.8c-0.4,0.3-0.9,0.3-1.3,0c-0.8-0.5-1.4-1.4-1.4-2.3
	c0-0.9,0.1-1.8,0.5-2.6c0.5-1,1-2,1.4-2.9L60.2,6.6z M50,9.6c0.4,1.1,1.2,2,2.1,2.6c0.8,0.5,1.7,0.9,2.6,1c-0.2-0.3-0.3-0.4-0.5-0.6
	c-0.5-1-0.8-2.1-0.6-3.3c0-0.3-0.1-0.5-0.3-0.7c-0.5-0.4-1.1-0.7-1.7-1c-0.9-0.4-2-0.7-3-0.7C49.4,7.7,49.8,8.6,50,9.6L50,9.6z
	 M70.1,9.6c0.2-1,0.7-1.9,1.3-2.7c-0.3,0-0.7,0-1,0.1c-1.3,0.2-2.5,0.7-3.6,1.5c-0.3,0.2-0.4,0.5-0.4,0.9c0.2,1.4-0.2,2.7-1.1,3.8
	C67.5,13,69.3,11.6,70.1,9.6L70.1,9.6z M54.3,10.8c0.1,1.1,0.5,2.1,1.3,2.8c0.8,0.6,1.8,0.8,2.7,0.6c-0.6-0.6-0.9-1.4-0.9-2.2
	c0-0.4,0-0.9,0-1.3c0-0.2-0.1-0.4-0.2-0.6c-0.8-0.8-1.9-1.4-3-1.8C54.3,9.2,54.2,10,54.3,10.8L54.3,10.8z M64.9,13.2
	c0.4-0.5,0.6-1.1,0.8-1.7c0.1-1.1,0.2-2.1,0.2-3.2c-1.2,0.3-2.2,0.9-3.1,1.8c-0.1,0.2-0.2,0.5-0.2,0.8c0.2,1.2-0.1,2.4-0.9,3.4
	C63,14.6,64.2,14.2,64.9,13.2z M58.1,7.2c0,0.4,0.1,0.8,0.2,1.2h0.1c0.5-1.2,1-2.4,1.8-3.4c0.3,0.6,0.7,1.2,1,1.7s0.5,1.1,0.8,1.7
	c0.9-1.3-0.2-4.4-1.8-6.6C59,3.5,58.3,5.3,58.1,7.2L58.1,7.2z M62.6,5.2c-0.1,0.1-0.1,0.2,0,0.4c0,0.5,0.2,1,0.2,1.5
	c0,0.5-0.1,1-0.2,1.4c0,0,0.1,0,0.1,0c0.6-0.8,1.4-1.5,2.3-2c0.1-0.1,0.2-0.2,0.2-0.3c0.1-0.8,0.1-1.6,0.1-2.5
	C64.3,4,63.4,4.5,62.6,5.2z M55,3.7C55,4.2,55,4.6,55,5c0,0.8,0.1,1.5,1,1.8c0,0,0.1,0,0.1,0.1l1.6,1.5c0-0.2-0.1-0.3-0.1-0.5
	c-0.1-0.7-0.1-1.4,0-2.1c0.1-0.4,0-0.8-0.4-1c-0.3-0.2-0.5-0.4-0.8-0.5C56,4,55.6,3.8,55.1,3.6L55,3.7z M53.6,8l-0.1-0.8
	c1.3,0.4,2.4,1,3.5,1.7c-1.4-1.7-3.3-2.9-5.4-3.4C51.5,6.6,52.1,7.4,53.6,8z M66.7,7.3l-0.1,0.8h0.1c0.4-0.3,0.8-0.6,1.2-0.9
	c0.5-0.4,0.7-1.1,0.5-1.7c-2.1,0.6-3.9,1.7-5.3,3.4C64.3,8.2,65.4,7.6,66.7,7.3z M58.6,16.3c0.9,0.5,2.1,0.5,3,0
	c0.4-0.2,0.5-0.7,0.3-1.1c-0.1-0.2-0.2-0.3-0.4-0.3c-0.7,0.8-1.8,0.9-2.6,0.3c-0.1-0.1-0.2-0.2-0.3-0.3C58,15.4,58,15.9,58.6,16.3
	L58.6,16.3z M57.2,14.9c-0.6,0-1.3-0.2-1.7-0.7c-0.3-0.4-0.6-0.3-0.9-0.1c-0.5,0.4-1,0.9-1.6,1.3c1.6,0.4,3.3,0.2,4.8-0.5L57.2,14.9
	z M67.3,15.4c-0.4-0.3-0.7-0.6-1.1-0.9c-0.2-0.2-0.4-0.3-0.7-0.5c-0.2-0.1-0.5-0.1-0.6,0.1c-0.2,0.2-0.5,0.4-0.9,0.6
	c-0.5,0.2-1.1,0.3-1.6,0.4C64,15.6,65.7,15.8,67.3,15.4L67.3,15.4z M68.9,12.5c-0.2,0-0.4,0-0.5,0.1c-0.4,0.2-0.8,0.5-1.3,0.7
	c-0.4,0.1-0.7,0.2-1.1,0.3c1.5,0.7,3.2,0.6,4.6-0.1C70.2,13,69.6,12.7,68.9,12.5L68.9,12.5z M54.2,13.5c-0.9-0.1-1.7-0.4-2.4-0.9
	c-0.1-0.1-0.3-0.1-0.4-0.1c-0.7,0.2-1.3,0.5-1.7,1C50.9,14.3,53.8,14.2,54.2,13.5L54.2,13.5z M71.1,9.8c-0.1,0-0.1,0-0.2,0.1
	c-0.2,0.4-0.5,0.8-0.7,1.1c0.9,0.3,1.9,0,2.4-0.9C72.2,9.9,71.6,9.8,71.1,9.8L71.1,9.8z M49.4,10c0,0-0.1-0.1-0.1-0.1
	c-0.5-0.1-1.1,0-1.6,0.3c0.5,0.8,1.5,1.2,2.4,0.9L49.4,10z M49.9,11.5c-0.5,0.1-1,0.4-1.5,0.8c1,0.1,1.8,0.8,2.7-0.1
	C50.7,12,50.6,11.2,49.9,11.5z M69.9,11.5c-0.1,0-0.2,0-0.2,0.1l-0.6,0.7c0.3,0.2,0.6,0.3,1,0.4c0.6-0.1,1.2-0.2,1.7-0.5
	C71.3,11.7,70.6,11.4,69.9,11.5L69.9,11.5z M48.1,46.8c0,7-1.9,12.1-5.8,15.4s-10.7,5-20.5,4.9h-1.7c-2.4,0-4.8-0.5-7.1-1.4
	c-2.1-1-3.5-3-4.2-6.1c0.9,1.8,2.3,3.3,4.1,4.3c1.7,0.8,3.4,1.4,5.2,1.8l0.1-27.2c0.1-1.9,0.7-3.7,1.5-5.4c0.7-1.7,1.6-3.4,2.7-4.9
	c-6,0-10.4,0.6-13.3,1.7c-2.8,1.1-4.2,3.6-4.2,7.3c0,3.2,0.7,5.6,2,7.3s3.9,3.7,7.5,5.8c-4,0-7-1.1-8.9-3.2c-2-2.1-3.1-5-3-7.9
	c-0.1-3.6,1.5-7.1,4.3-9.3c2.8-2.4,8.4-3.5,16.7-3.5l0.9-0.8v0.8c7.1,0,12.9,1.6,17.2,4.7C46,34.2,48.1,39.4,48.1,46.8z M24.4,56.5
	c-0.1,1.6-0.6,3.2-1.4,4.6c-0.9,1.6-1.9,3.1-3,4.5c3.9,0.1,7.8-0.2,11.7-1c3-0.6,5.7-2.2,7.6-4.5c1.9-2.2,2.9-5.5,2.9-9.9
	c0-7-1.2-12.4-3.8-16.4c-2.5-3.9-7.1-5.9-13.9-6L24.4,56.5z M68.7,36.9l-0.1,17.5c0,0.4,0.2,0.6,0.6,0.6c0.4,0,0.7-0.1,1-0.3
	c0.4-0.2,1-0.5,1.9-1c-0.5,0.9-1.2,1.8-2.1,2.5c-0.7,0.7-1.7,1.1-2.8,1.2c-0.8-0.1-1.5-0.5-2-1c-0.8-0.7-1.2-1.7-1.2-2.8V51
	c-1.9,1.9-3.6,3.4-4.9,4.6c-0.9,1-2.1,1.6-3.5,1.7c-1.2-0.1-2.3-0.8-2.8-1.9c-0.9-1.5-1.3-3.3-1.2-5.1c0-4.3,1.2-7.6,3.6-10
	c2.5-2.4,5.8-3.7,9.2-3.5L68.7,36.9z M56.4,46.8c-0.1,1.2,0.1,2.4,0.7,3.4c0.4,0.7,1.2,1.1,2.1,1.1c0.9,0,1.7-0.3,2.4-0.7
	c0.9-0.5,1.8-1.1,2.6-1.9l0.1-10.5c-2.2-0.1-4.3,0.9-5.7,2.6C57.1,42.5,56.4,44.6,56.4,46.8z M78.4,36.8c0.8-0.1,1.5,0.5,1.7,1.3
	c0.3,1.4,0.4,2.9,0.3,4.3v2.1c1.2-1.7,2.4-3.3,3.7-5c1.5-1.8,3.1-2.7,4.6-2.7c0.8,0,1.5,0.3,2,0.9c0.5,0.6,0.8,1.4,0.8,2.2
	c-0.1,1.4-0.8,2.6-1.8,3.6c-1.2,1.3-2.4,2.5-3.6,3.6c0.2-0.5,0.4-1,0.5-1.6c0.2-0.7,0.2-1.3,0.3-2c0-0.6-0.1-1.2-0.3-1.7
	c-0.2-0.4-0.7-0.7-1.2-0.7c-0.6,0-1.3,0.5-2.3,1.6c-0.9,1.1-1.8,2.2-2.6,3.3V55c-0.6,0.5-1.3,1-1.9,1.5c-0.7,0.5-1.6,0.9-2.5,1
	L76,41.9c0.1-0.5-0.2-0.9-0.7-1c-0.1,0-0.2,0-0.2,0c-0.4,0-0.7,0.1-1,0.3c-0.5,0.3-0.9,0.6-1.3,1c0.7-1.3,1.6-2.5,2.7-3.5
	C76.8,37.4,77.7,36.7,78.4,36.8L78.4,36.8z M97.9,36.8c0.8-0.1,1.7,0.4,1.9,1.2c0.2,0.8,0.4,1.6,0.5,2.4v8.9v1.3
	c0,0.8,0.1,1.5,0.3,2.2c0.2,0.5,0.8,0.8,1.6,0.8s1.8-0.6,2.9-1.8c1-0.8,1.6-1.9,1.8-3.2v-8.1c0-1,0.5-1.9,1.3-2.5c0.9-0.7,2-1,3.1-1
	l-0.1,16.8c0.1,0.1,0.2,0.3,0.3,0.4c0.2,0.1,0.5,0.2,0.7,0.1c0.6,0,1.1-0.2,1.6-0.5c0.8-0.5,1.6-1.1,2.3-1.7
	c-0.9,1.3-1.9,2.5-3.1,3.6c-1,1.1-2.3,1.9-3.8,2c-0.7,0.1-1.4-0.2-1.9-0.8c-0.4-0.7-0.6-1.5-0.5-2.3v-2.1c-1.3,1.3-2.6,2.6-4.1,3.7
	c-1.1,0.9-2.5,1.4-3.9,1.4c-1.1,0-2-0.6-2.4-1.6c-0.5-1.2-0.7-2.6-0.7-3.9L96,41.1c0-0.4,0-0.9-0.2-1.3c-0.2-0.3-0.5-0.5-0.8-0.4
	c-0.8,0.1-1.5,0.4-2.1,0.8c0.6-1,1.4-1.9,2.4-2.6C96,37.1,96.9,36.8,97.9,36.8L97.9,36.8z"/>
<g>
	<defs>
		<path id="SVGID_1_" d="M60.2,6.6c1.1,1.5,1.7,3.2,2,5c0.1,1.1-0.4,2.2-1.4,2.8c-0.4,0.3-0.9,0.3-1.3,0c-0.8-0.5-1.4-1.4-1.4-2.3
			c0-0.9,0.1-1.8,0.5-2.6c0.5-1,1-2,1.4-2.9L60.2,6.6z M50,9.6c0.4,1.1,1.2,2,2.1,2.6c0.8,0.5,1.7,0.9,2.6,1
			c-0.2-0.3-0.3-0.4-0.5-0.6c-0.5-1-0.8-2.1-0.6-3.3c0-0.3-0.1-0.5-0.3-0.7c-0.5-0.4-1.1-0.7-1.7-1c-0.9-0.4-2-0.7-3-0.7
			C49.4,7.7,49.8,8.6,50,9.6L50,9.6z M70.1,9.6c0.2-1,0.7-1.9,1.3-2.7c-0.3,0-0.7,0-1,0.1c-1.3,0.2-2.5,0.7-3.6,1.5
			c-0.3,0.2-0.4,0.5-0.4,0.9c0.2,1.4-0.2,2.7-1.1,3.8C67.5,13,69.3,11.6,70.1,9.6L70.1,9.6z M54.3,10.8c0.1,1.1,0.5,2.1,1.3,2.8
			c0.8,0.6,1.8,0.8,2.7,0.6c-0.6-0.6-0.9-1.4-0.9-2.2c0-0.4,0-0.9,0-1.3c0-0.2-0.1-0.4-0.2-0.6c-0.8-0.8-1.9-1.4-3-1.8
			C54.3,9.2,54.2,10,54.3,10.8L54.3,10.8z M64.9,13.2c0.4-0.5,0.6-1.1,0.8-1.7c0.1-1.1,0.2-2.1,0.2-3.2c-1.2,0.3-2.2,0.9-3.1,1.8
			c-0.1,0.2-0.2,0.5-0.2,0.8c0.2,1.2-0.1,2.4-0.9,3.4C63,14.6,64.2,14.2,64.9,13.2z M58.1,7.2c0,0.4,0.1,0.8,0.2,1.2h0.1
			c0.5-1.2,1-2.4,1.8-3.4c0.3,0.6,0.7,1.2,1,1.7s0.5,1.1,0.8,1.7c0.9-1.3-0.2-4.4-1.8-6.6C59,3.5,58.3,5.3,58.1,7.2L58.1,7.2z
			 M62.6,5.2c-0.1,0.1-0.1,0.2,0,0.4c0,0.5,0.2,1,0.2,1.5c0,0.5-0.1,1-0.2,1.4c0,0,0.1,0,0.1,0c0.6-0.8,1.4-1.5,2.3-2
			c0.1-0.1,0.2-0.2,0.2-0.3c0.1-0.8,0.1-1.6,0.1-2.5C64.3,4,63.4,4.5,62.6,5.2z M55,3.7C55,4.2,55,4.6,55,5c0,0.8,0.1,1.5,1,1.8
			c0,0,0.1,0,0.1,0.1l1.6,1.5c0-0.2-0.1-0.3-0.1-0.5c-0.1-0.7-0.1-1.4,0-2.1c0.1-0.4,0-0.8-0.4-1c-0.3-0.2-0.5-0.4-0.8-0.5
			C56,4,55.6,3.8,55.1,3.6L55,3.7z M53.6,8l-0.1-0.8c1.3,0.4,2.4,1,3.5,1.7c-1.4-1.7-3.3-2.9-5.4-3.4C51.5,6.6,52.1,7.4,53.6,8z
			 M66.7,7.3l-0.1,0.8h0.1c0.4-0.3,0.8-0.6,1.2-0.9c0.5-0.4,0.7-1.1,0.5-1.7c-2.1,0.6-3.9,1.7-5.3,3.4C64.3,8.2,65.4,7.6,66.7,7.3z
			 M58.6,16.3c0.9,0.5,2.1,0.5,3,0c0.4-0.2,0.5-0.7,0.3-1.1c-0.1-0.2-0.2-0.3-0.4-0.3c-0.7,0.8-1.8,0.9-2.6,0.3
			c-0.1-0.1-0.2-0.2-0.3-0.3C58,15.4,58,15.9,58.6,16.3L58.6,16.3z M57.2,14.9c-0.6,0-1.3-0.2-1.7-0.7c-0.3-0.4-0.6-0.3-0.9-0.1
			c-0.5,0.4-1,0.9-1.6,1.3c1.6,0.4,3.3,0.2,4.8-0.5L57.2,14.9z M67.3,15.4c-0.4-0.3-0.7-0.6-1.1-0.9c-0.2-0.2-0.4-0.3-0.7-0.5
			c-0.2-0.1-0.5-0.1-0.6,0.1c-0.2,0.2-0.5,0.4-0.9,0.6c-0.5,0.2-1.1,0.3-1.6,0.4C64,15.6,65.7,15.8,67.3,15.4L67.3,15.4z M68.9,12.5
			c-0.2,0-0.4,0-0.5,0.1c-0.4,0.2-0.8,0.5-1.3,0.7c-0.4,0.1-0.7,0.2-1.1,0.3c1.5,0.7,3.2,0.6,4.6-0.1C70.2,13,69.6,12.7,68.9,12.5
			L68.9,12.5z M54.2,13.5c-0.9-0.1-1.7-0.4-2.4-0.9c-0.1-0.1-0.3-0.1-0.4-0.1c-0.7,0.2-1.3,0.5-1.7,1C50.9,14.3,53.8,14.2,54.2,13.5
			L54.2,13.5z M71.1,9.8c-0.1,0-0.1,0-0.2,0.1c-0.2,0.4-0.5,0.8-0.7,1.1c0.9,0.3,1.9,0,2.4-0.9C72.2,9.9,71.6,9.8,71.1,9.8L71.1,9.8
			z M49.4,10c0,0-0.1-0.1-0.1-0.1c-0.5-0.1-1.1,0-1.6,0.3c0.5,0.8,1.5,1.2,2.4,0.9L49.4,10z M49.9,11.5c-0.5,0.1-1,0.4-1.5,0.8
			c1,0.1,1.8,0.8,2.7-0.1C50.7,12,50.6,11.2,49.9,11.5z M69.9,11.5c-0.1,0-0.2,0-0.2,0.1l-0.6,0.7c0.3,0.2,0.6,0.3,1,0.4
			c0.6-0.1,1.2-0.2,1.7-0.5C71.3,11.7,70.6,11.4,69.9,11.5L69.9,11.5z M48.1,46.8c0,7-1.9,12.1-5.8,15.4s-10.7,5-20.5,4.9h-1.7
			c-2.4,0-4.8-0.5-7.1-1.4c-2.1-1-3.5-3-4.2-6.1c0.9,1.8,2.3,3.3,4.1,4.3c1.7,0.8,3.4,1.4,5.2,1.8l0.1-27.2c0.1-1.9,0.7-3.7,1.5-5.4
			c0.7-1.7,1.6-3.4,2.7-4.9c-6,0-10.4,0.6-13.3,1.7c-2.8,1.1-4.2,3.6-4.2,7.3c0,3.2,0.7,5.6,2,7.3s3.9,3.7,7.5,5.8
			c-4,0-7-1.1-8.9-3.2c-2-2.1-3.1-5-3-7.9c-0.1-3.6,1.5-7.1,4.3-9.3c2.8-2.4,8.4-3.5,16.7-3.5l0.9-0.8v0.8c7.1,0,12.9,1.6,17.2,4.7
			C46,34.2,48.1,39.4,48.1,46.8z M24.4,56.5c-0.1,1.6-0.6,3.2-1.4,4.6c-0.9,1.6-1.9,3.1-3,4.5c3.9,0.1,7.8-0.2,11.7-1
			c3-0.6,5.7-2.2,7.6-4.5c1.9-2.2,2.9-5.5,2.9-9.9c0-7-1.2-12.4-3.8-16.4c-2.5-3.9-7.1-5.9-13.9-6L24.4,56.5z M68.7,36.9l-0.1,17.5
			c0,0.4,0.2,0.6,0.6,0.6c0.4,0,0.7-0.1,1-0.3c0.4-0.2,1-0.5,1.9-1c-0.5,0.9-1.2,1.8-2.1,2.5c-0.7,0.7-1.7,1.1-2.8,1.2
			c-0.8-0.1-1.5-0.5-2-1c-0.8-0.7-1.2-1.7-1.2-2.8V51c-1.9,1.9-3.6,3.4-4.9,4.6c-0.9,1-2.1,1.6-3.5,1.7c-1.2-0.1-2.3-0.8-2.8-1.9
			c-0.9-1.5-1.3-3.3-1.2-5.1c0-4.3,1.2-7.6,3.6-10c2.5-2.4,5.8-3.7,9.2-3.5L68.7,36.9z M56.4,46.8c-0.1,1.2,0.1,2.4,0.7,3.4
			c0.4,0.7,1.2,1.1,2.1,1.1c0.9,0,1.7-0.3,2.4-0.7c0.9-0.5,1.8-1.1,2.6-1.9l0.1-10.5c-2.2-0.1-4.3,0.9-5.7,2.6
			C57.1,42.5,56.4,44.6,56.4,46.8z M78.4,36.8c0.8-0.1,1.5,0.5,1.7,1.3c0.3,1.4,0.4,2.9,0.3,4.3v2.1c1.2-1.7,2.4-3.3,3.7-5
			c1.5-1.8,3.1-2.7,4.6-2.7c0.8,0,1.5,0.3,2,0.9c0.5,0.6,0.8,1.4,0.8,2.2c-0.1,1.4-0.8,2.6-1.8,3.6c-1.2,1.3-2.4,2.5-3.6,3.6
			c0.2-0.5,0.4-1,0.5-1.6c0.2-0.7,0.2-1.3,0.3-2c0-0.6-0.1-1.2-0.3-1.7c-0.2-0.4-0.7-0.7-1.2-0.7c-0.6,0-1.3,0.5-2.3,1.6
			c-0.9,1.1-1.8,2.2-2.6,3.3V55c-0.6,0.5-1.3,1-1.9,1.5c-0.7,0.5-1.6,0.9-2.5,1L76,41.9c0.1-0.5-0.2-0.9-0.7-1c-0.1,0-0.2,0-0.2,0
			c-0.4,0-0.7,0.1-1,0.3c-0.5,0.3-0.9,0.6-1.3,1c0.7-1.3,1.6-2.5,2.7-3.5C76.8,37.4,77.7,36.7,78.4,36.8L78.4,36.8z M97.9,36.8
			c0.8-0.1,1.7,0.4,1.9,1.2c0.2,0.8,0.4,1.6,0.5,2.4v8.9v1.3c0,0.8,0.1,1.5,0.3,2.2c0.2,0.5,0.8,0.8,1.6,0.8s1.8-0.6,2.9-1.8
			c1-0.8,1.6-1.9,1.8-3.2v-8.1c0-1,0.5-1.9,1.3-2.5c0.9-0.7,2-1,3.1-1l-0.1,16.8c0.1,0.1,0.2,0.3,0.3,0.4c0.2,0.1,0.5,0.2,0.7,0.1
			c0.6,0,1.1-0.2,1.6-0.5c0.8-0.5,1.6-1.1,2.3-1.7c-0.9,1.3-1.9,2.5-3.1,3.6c-1,1.1-2.3,1.9-3.8,2c-0.7,0.1-1.4-0.2-1.9-0.8
			c-0.4-0.7-0.6-1.5-0.5-2.3v-2.1c-1.3,1.3-2.6,2.6-4.1,3.7c-1.1,0.9-2.5,1.4-3.9,1.4c-1.1,0-2-0.6-2.4-1.6
			c-0.5-1.2-0.7-2.6-0.7-3.9L96,41.1c0-0.4,0-0.9-0.2-1.3c-0.2-0.3-0.5-0.5-0.8-0.4c-0.8,0.1-1.5,0.4-2.1,0.8c0.6-1,1.4-1.9,2.4-2.6
			C96,37.1,96.9,36.8,97.9,36.8L97.9,36.8z"/>
	</defs>
	<use xlink:href="#SVGID_1_"  style="overflow:visible;fill:#CE942F;"/>
	<clipPath id="SVGID_2_">
		<use xlink:href="#SVGID_1_"  style="overflow:visible;"/>
	</clipPath>
	<g class="st1">
		<rect class="st0" width="120.4" height="71.5"/>
	</g>
</g>
</svg>
