<svg width="62" height="55" viewBox="0 0 62 55" fill="none" xmlns="http://www.w3.org/2000/svg">
   <rect x="0.693848" width="60.6122" height="55" rx="5" fill="#0BA85C" />
   <path d="M31.014 10C27.1991 9.9975 23.469 11.0217 20.2956 12.9431C17.1223 14.8645 14.6482 17.5968 13.1864 20.7943C11.7246 23.9918 11.3407 27.5108 12.0832 30.9063C12.8258 34.3018 14.6615 37.4212 17.3581 39.8699C20.0547 42.3186 23.491 43.9865 27.2325 44.6628C30.9739 45.3391 34.8524 44.9933 38.3772 43.6691C41.902 42.3449 44.9148 40.1019 47.0346 37.2238C49.1543 34.3457 50.2858 30.9617 50.2858 27.5C50.2821 22.8619 48.2509 18.4146 44.638 15.1338C41.025 11.853 36.1253 10.0067 31.014 10ZM28.1574 13.5531C30.292 14.7878 32.727 15.5301 35.2502 15.7153L35.1108 17.5994C34.1726 17.5232 33.2414 17.388 32.3239 17.1947L32.0173 17.1189C30.2166 16.6818 28.501 15.9951 26.9311 15.0831L26.8475 15.0199L28.1574 13.5531ZM31.014 36.2374C29.1056 36.2399 27.2394 35.7285 25.6515 34.768C24.0636 33.8075 22.8255 32.4411 22.0939 30.8417C21.3623 29.2423 21.1702 27.4819 21.5418 25.7834C21.9135 24.0849 22.8321 22.5247 24.1816 21.3002C25.531 20.0757 27.2504 19.2421 29.1223 18.9049C30.9941 18.5677 32.9341 18.742 34.6967 19.4058C36.4592 20.0697 37.9651 21.1931 39.0236 22.634C40.0821 24.0749 40.6457 25.7683 40.6429 27.5C40.6392 29.8163 39.6236 32.0367 37.8186 33.6746C36.0136 35.3124 33.5666 36.234 31.014 36.2374Z" fill="#F5FEFA" />
</svg>
